<svg width="268" height="49" viewBox="0 0 268 49" fill="none" xmlns="http://www.w3.org/2000/svg">
<g opacity="0.5">
<path d="M78.7006 8.44336H61.8127C62.7965 14.018 68.2072 19.2647 74.1097 19.2647H87.5544C87.7184 18.7728 87.7184 17.953 87.7184 17.4611C87.7184 12.5424 83.6194 8.44336 78.7006 8.44336Z" fill="#71553A"/>
<path d="M63.2886 20.2483V33.8569H71.4866V26.6427H78.7008C82.6358 26.6427 86.079 23.8554 87.2267 20.2483H63.2886Z" fill="#71553A"/>
<path d="M34.4316 8.44336V33.6932H41.6459C41.6459 33.6932 43.4494 33.6932 44.4332 31.8896C49.352 22.216 50.8276 19.2647 50.8276 19.2647H51.8114V33.6932H60.0094V8.44336H52.7951C52.7951 8.44336 50.9916 8.60733 50.0078 10.2469C45.9088 18.6089 43.6134 22.8718 43.6134 22.8718H42.6296V8.44336H34.4316Z" fill="#71553A"/>
<path d="M0 33.8572V8.60742H8.19798C8.19798 8.60742 10.4934 8.60742 11.8051 12.2145C15.0843 21.7242 15.4123 23.0359 15.4123 23.0359C15.4123 23.0359 16.0681 20.7404 19.0193 12.2145C20.331 8.60742 22.6265 8.60742 22.6265 8.60742H30.8244V33.8572H22.6265V20.2486H21.6427L17.0518 33.8572H13.4447L8.85386 20.2486H7.87009V33.8572H0Z" fill="#71553A"/>
</g>
<path fill-rule="evenodd" clip-rule="evenodd" d="M124.519 43.5959V46.1233V48.6507H123.412V48.037C123.061 48.4922 122.529 48.7778 121.805 48.7778C120.378 48.7778 119.259 47.6679 119.259 46.1233C119.259 44.58 120.378 43.4688 121.805 43.4688C122.529 43.4688 123.061 43.7545 123.412 44.2096V43.5959H124.519ZM121.943 44.5049C120.985 44.5049 120.399 45.2348 120.399 46.1233C120.399 47.0117 120.985 47.7416 121.943 47.7416C122.858 47.7416 123.476 47.0432 123.476 46.1233C123.476 45.2033 122.858 44.5049 121.943 44.5049ZM161.907 46.1233C161.907 45.2348 162.494 44.5049 163.451 44.5049C164.368 44.5049 164.984 45.2033 164.984 46.1233C164.984 47.0432 164.368 47.7416 163.451 47.7416C162.494 47.7416 161.907 47.0117 161.907 46.1233ZM166.029 41.566V46.1233V48.6507H164.921V48.037C164.57 48.4922 164.037 48.7778 163.314 48.7778C161.887 48.7778 160.768 47.6679 160.768 46.1233C160.768 44.58 161.887 43.4688 163.314 43.4688C164.037 43.4688 164.57 43.7545 164.921 44.2096V41.566H166.029ZM138.252 44.4529C138.965 44.4529 139.423 44.8972 139.54 45.6791H136.9C137.018 44.9492 137.464 44.4529 138.252 44.4529ZM135.74 46.1233C135.74 44.5473 136.783 43.4688 138.274 43.4688C139.7 43.4688 140.68 44.5473 140.691 46.1233C140.691 46.271 140.68 46.409 140.669 46.5458H136.89C137.05 47.456 137.699 47.7841 138.412 47.7841C138.923 47.7841 139.466 47.5928 139.893 47.2551L140.435 48.0697C139.817 48.5878 139.115 48.7778 138.349 48.7778C136.826 48.7778 135.74 47.7308 135.74 46.1233ZM151.634 46.1233C151.634 45.2348 152.22 44.5049 153.178 44.5049C154.093 44.5049 154.711 45.2033 154.711 46.1233C154.711 47.0432 154.093 47.7416 153.178 47.7416C152.22 47.7416 151.634 47.0117 151.634 46.1233ZM155.754 43.5959V46.1233V48.6507H154.648V48.037C154.295 48.4922 153.764 48.7778 153.04 48.7778C151.613 48.7778 150.495 47.6679 150.495 46.1233C150.495 44.58 151.613 43.4688 153.04 43.4688C153.764 43.4688 154.295 43.7545 154.648 44.2096V43.5959H155.754ZM145.386 46.1233C145.386 47.657 146.46 48.7778 148.1 48.7778C148.867 48.7778 149.377 48.6084 149.931 48.175L149.399 47.2866C148.984 47.5831 148.548 47.7417 148.068 47.7417C147.184 47.7308 146.535 47.0965 146.535 46.1233C146.535 45.1501 147.184 44.5159 148.068 44.505C148.548 44.505 148.984 44.6635 149.399 44.9601L149.931 44.0716C149.377 43.6383 148.867 43.4688 148.1 43.4688C146.46 43.4688 145.386 44.5897 145.386 46.1233ZM158.309 44.2096C158.597 43.7653 159.012 43.4688 159.651 43.4688C159.875 43.4688 160.194 43.5111 160.439 43.6068L160.098 44.6429C159.864 44.5473 159.63 44.5158 159.406 44.5158C158.682 44.5158 158.32 44.9806 158.32 45.817V48.6507H157.212V43.5959H158.309V44.2096ZM129.991 43.9978C129.458 43.6492 128.725 43.4688 127.916 43.4688C126.627 43.4688 125.797 44.0825 125.797 45.0872C125.797 45.9115 126.415 46.4199 127.553 46.5785L128.075 46.6523C128.682 46.737 128.969 46.8956 128.969 47.1813C128.969 47.5722 128.564 47.795 127.808 47.795C127.042 47.795 126.489 47.5517 126.116 47.266L125.594 48.1218C126.201 48.566 126.968 48.7778 127.798 48.7778C129.267 48.7778 130.119 48.0903 130.119 47.128C130.119 46.2395 129.449 45.7747 128.341 45.6162L127.819 45.5411C127.341 45.4782 126.957 45.3837 126.957 45.0448C126.957 44.6744 127.319 44.4529 127.925 44.4529C128.575 44.4529 129.204 44.6962 129.512 44.8863L129.991 43.9978ZM142.927 44.2096C143.213 43.7653 143.629 43.4688 144.267 43.4688C144.491 43.4688 144.81 43.5111 145.055 43.6068L144.714 44.6429C144.48 44.5473 144.246 44.5158 144.022 44.5158C143.298 44.5158 142.936 44.9806 142.936 45.817V48.6507H141.83V43.5959L142.927 43.5959V44.2096ZM134.825 43.5959H133.015V42.0623H131.896V43.5959H130.864V44.6006H131.896V46.9065C131.896 48.0794 132.355 48.7778 133.663 48.7778C134.143 48.7778 134.697 48.6302 135.048 48.3869L134.728 47.4451C134.398 47.6352 134.036 47.7308 133.749 47.7308C133.195 47.7308 133.015 47.3919 133.015 46.8847V44.6006H134.825V43.5959ZM118.281 45.4781V48.6507H117.162V45.8376C117.162 44.9806 116.8 44.5049 116.045 44.5049C115.31 44.5049 114.8 44.9709 114.8 45.8485V48.6507H113.681V45.8376C113.681 44.9806 113.309 44.5049 112.575 44.5049C111.818 44.5049 111.328 44.9709 111.328 45.8485V48.6507H110.211V43.5959H111.318V44.2193C111.734 43.6273 112.265 43.4688 112.809 43.4688C113.586 43.4688 114.139 43.8077 114.49 44.3681C114.959 43.6588 115.629 43.4579 116.279 43.4688C117.514 43.4797 118.281 44.2834 118.281 45.4781Z" fill="#B7A797"/>
<path d="M146.393 35.0068H129.624V5.07007H146.393V35.0068Z" fill="#B7A797"/>
<path d="M130.688 20.039C130.688 13.9662 133.55 8.55677 138.008 5.07069C134.748 2.5215 130.634 0.999966 126.164 0.999966C115.58 0.999966 107 9.52392 107 20.039C107 30.5542 115.58 39.0781 126.164 39.0781C130.634 39.0781 134.748 37.5566 138.008 35.0074C133.55 31.5213 130.688 26.1118 130.688 20.039Z" fill="#B7A797"/>
<path d="M130.688 20.039C130.688 13.9662 133.55 8.55677 138.008 5.07069C134.748 2.52149 130.634 0.999967 126.164 0.999967C115.58 0.999967 107 9.52392 107 20.039C107 30.5542 115.58 39.0781 126.164 39.0781C130.634 39.0781 134.748 37.5566 138.008 35.0074C133.55 31.5213 130.688 26.1118 130.688 20.039" stroke="#FCF8F5" stroke-width="0.854237"/>
<path d="M169.016 20.039C169.016 30.5542 160.437 39.0781 149.853 39.0781C145.382 39.0781 141.268 37.5566 138.008 35.0074C142.466 31.5213 145.328 26.1118 145.328 20.039C145.328 13.9662 142.466 8.55677 138.008 5.07069C141.268 2.5215 145.382 0.999966 149.853 0.999966C160.437 0.999966 169.016 9.52392 169.016 20.039Z" fill="#B7A797"/>
<path d="M169.016 20.039C169.016 30.5542 160.437 39.0781 149.853 39.0781C145.382 39.0781 141.268 37.5566 138.008 35.0074C142.466 31.5213 145.328 26.1118 145.328 20.039C145.328 13.9662 142.466 8.55677 138.008 5.07069C141.268 2.52149 145.382 0.999967 149.853 0.999967C160.437 0.999967 169.016 9.52392 169.016 20.039" stroke="#FCF8F5" stroke-width="0.854237"/>
<path fill-rule="evenodd" clip-rule="evenodd" d="M207.817 33.8213H200.957L195.813 13.6189C195.569 12.6896 195.051 11.8681 194.288 11.4809C192.385 10.5078 190.288 9.73336 188 9.34278V8.56499H199.051C200.576 8.56499 201.72 9.73336 201.911 11.0903L204.58 25.6629L211.436 8.56499H218.106L207.817 33.8213ZM221.919 33.8213H215.44L220.775 8.56499H227.253L221.919 33.8213ZM235.635 15.5617C235.826 14.2014 236.97 13.4236 238.304 13.4236C240.401 13.2283 242.686 13.6189 244.592 14.5886L245.736 9.15079C243.83 8.373 241.732 7.98242 239.829 7.98242C233.541 7.98242 228.966 11.4808 228.966 16.3361C228.966 20.0298 232.207 21.9692 234.495 23.1376C236.97 24.3026 237.923 25.0804 237.732 26.2454C237.732 27.9929 235.826 28.7707 233.923 28.7707C231.635 28.7707 229.347 28.1882 227.253 27.2151L226.109 32.6563C228.397 33.626 230.872 34.0166 233.16 34.0166C240.211 34.2085 244.592 30.7135 244.592 25.4676C244.592 18.8614 235.635 18.4742 235.635 15.5617ZM267.266 33.8213L262.122 8.56499H256.596C255.452 8.56499 254.309 9.34278 253.927 10.5078L244.402 33.8213H251.071L252.402 30.131H260.597L261.359 33.8213H267.266ZM257.55 15.3665L259.453 24.8852H254.118L257.55 15.3665Z" fill="#B7A797"/>
</svg>
